<?xml version="1.0" encoding="utf-8"?>
<!-- Generator: Adobe Illustrator 23.1.0, SVG Export Plug-In . SVG Version: 6.00 Build 0)  -->
<svg version="1.1" id="Layer_1" xmlns="http://www.w3.org/2000/svg" xmlns:xlink="http://www.w3.org/1999/xlink" x="0px" y="0px"
	 viewBox="0 0 500 500" style="enable-background:new 0 0 500 500;" xml:space="preserve">
<style type="text/css">
	.st0{fill:#664500;}
	.st1{fill:#FFCC4D;}
	.st2{fill:#F5900C;}
</style>
<g>
	<path class="st0" d="M149.6,95.4c11.9-3.6,22.2-11.6,34.7-13.2c9.2,0,18.4,4.2,24.4,11.2c7.5,9.3,17.6,16,25,25.4
		c6.6,7.1,13.3,15.5,13.3,25.7c1.4,13.6-12.8,25.2-25.8,22.6c-5.5-1.3-10.9-4.1-14-8.9c-6.3-10.8-15.8-19.3-25.3-27.1
		c-15.6,6.4-31.3,12.8-46.9,19.3c-6,2.6-12.8,4.9-19.3,2.6c-10.2-2.5-17.4-13.1-16.1-23.4c1-7.9,6.3-14.7,13.3-18.3
		C124.9,105.3,137.6,101.2,149.6,95.4z"/>
	<path class="st0" d="M171.9,141.3c13-2.4,26.1,9.5,25.1,22.7c0.8,13.9-14.8,25.7-27.9,21.1c-10-2.3-17.2-12.7-16.2-22.8
		C153,151.8,161.7,142.6,171.9,141.3z"/>
	<path class="st0" d="M324.6,168.6c8.1-1,16.5-2.3,24.3,1.3c7.5,3.1,11.7,11.1,12.9,18.8c0.2,10-6.7,20.1-16.6,22.5
		c-8.3,2-17.2,0.6-25.4,3.5c6.2,12.6-3.8,28.3-17.1,30.4c-14.3,2.7-27.7-11-26.1-25.2c-7.2,1.4-14.5,1.6-21.8,2.7
		c-12.3,1.8-25.9-6.6-27-19.6c-1.9-11.5,6.6-23.3,18.2-25C272.2,175.8,298.5,173.5,324.6,168.6z"/>
	<path class="st0" d="M162.6,222.8c5.2-1.4,10.6,0.3,15.7,1.5c25.8,7.1,51.2,15.6,76.5,24.3c21.2,7.2,41.9,15.7,63.3,22.3
		c31.9,11.2,64.2,20.7,96.4,30.9c8.4,2.4,15,9.9,16.4,18.5c2.2,10.7-5.7,21.4-15.8,24.5c-4.9,1.3-10.1,0.8-14.9-0.6
		c-53.9-16.4-107.5-33.6-160.2-53.5c-24.7-7.9-49-17.1-74.2-23.3c-11.3-0.4-21.8-10.4-21.3-22C143.6,234.6,152.1,224.7,162.6,222.8z
		"/>
</g>
<g>
	<path class="st1" d="M208.7,93.4c4.3-0.9,8.7-0.7,13.1-0.1c14.7,1.4,29.5,2.7,43.8,6.3c25.6,6.8,51.9,12.4,75.8,24.2
		c13.5,7.4,24.5,18.5,36.3,28.1c21.6,21.3,43.1,43,59.2,68.9c8,14.3,12.6,30.3,14.6,46.5c2.9,9.9,3.7,20.1,5,30.3v4
		c-1.2,18.1-6.5,36.6-18.7,50.5c-9.3,11.6-23.2,17.9-37,22.3c-21.7,5.6-40.2,18.9-60.4,27.8c-18.1,8.6-37.7,13.5-57.6,16h-28.3
		c-14.5-1.8-29-4.7-42.4-10.7c11.7,3.3,25.1-4.1,27.9-16c2.4-8.8-0.9-17.9-7.2-24.1c25.4,0.5,50.8-2.8,76.1-4.2
		c11.6-0.6,21.6-11.3,20.8-23c0.5-13.7-13.5-24.6-26.8-22.3c-43.5,4.9-87.2,4-130.8,6.7c-1.3-13.6-4.7-27-9.8-39.6
		c-2.3-5.7-5.7-11.3-11.1-14.6c-9.3-6.4-23.2-3.7-29.8,5.3c-5.2,6.6-6.1,16.1-2.6,23.7c3.1,6.7,6.2,13.7,6.6,21.2
		c-0.9,5.2-5.2,9-7.2,13.8c-11.5-14.4-21.1-30.3-33.9-43.6c-17.2-18.9-35.3-39.1-40.9-64.8v-12.4c2.5-12.1,3.3-24.5,7.7-36.2
		c2-6.3,5.7-11.8,8.4-17.9c5.3-13.1,14.6-24.1,24.8-33.7c15.4-13.5,33.2-25.1,53.4-29.8c3.9-1,7.9-0.9,11.8-0.9
		c-12,5.9-24.8,9.9-36.8,15.8c-7,3.6-12.3,10.4-13.3,18.3c-1.4,10.4,5.9,20.9,16.1,23.4c6.5,2.3,13.3,0,19.3-2.6
		c15.6-6.5,31.2-12.9,46.9-19.3c9.6,7.8,19.1,16.3,25.3,27.1c3.2,4.8,8.5,7.7,14,8.9c13,2.6,27.3-9,25.8-22.6
		c0-10.2-6.7-18.6-13.3-25.7C226.3,109.4,216.2,102.7,208.7,93.4 M171.9,141.3c-10.2,1.3-18.9,10.5-19,20.9
		c-1,10.2,6.2,20.5,16.2,22.8c13.1,4.6,28.7-7.2,27.9-21.1C198,150.8,184.9,138.9,171.9,141.3 M324.6,168.6
		c-26.1,4.9-52.4,7.2-78.8,9.4c-11.5,1.7-20.1,13.5-18.2,25c1.1,12.9,14.7,21.4,27,19.6c7.3-1.1,14.6-1.2,21.8-2.7
		c-1.5,14.2,11.9,27.8,26.1,25.2c13.3-2.1,23.3-17.8,17.1-30.4c8.1-2.9,17.1-1.4,25.4-3.5c10-2.4,16.8-12.5,16.6-22.5
		c-1.2-7.7-5.4-15.7-12.9-18.8C341.1,166.2,332.7,167.6,324.6,168.6 M162.6,222.8c-10.5,1.9-18.9,11.9-18.2,22.6
		c-0.4,11.6,10,21.5,21.3,22c25.2,6.2,49.5,15.4,74.2,23.3c52.7,19.8,106.4,37,160.2,53.5c4.8,1.5,10,1.9,14.9,0.6
		c10.1-3.1,18-13.8,15.8-24.5c-1.4-8.6-7.9-16.1-16.4-18.5c-32.2-10.2-64.5-19.7-96.4-30.9c-21.4-6.6-42.1-15.1-63.3-22.3
		c-25.3-8.7-50.7-17.2-76.5-24.3C173.2,223.1,167.8,221.4,162.6,222.8z"/>
</g>
<g>
	<path class="st2" d="M121.5,275.9c6.6-9,20.5-11.7,29.8-5.3c5.4,3.3,8.8,8.8,11.1,14.6c5.1,12.6,8.5,26,9.8,39.6
		c43.6-2.7,87.3-1.8,130.8-6.7c13.3-2.4,27.2,8.5,26.8,22.3c0.8,11.7-9.3,22.4-20.8,23c-25.4,1.4-50.7,4.7-76.1,4.2
		c6.3,6.2,9.6,15.3,7.2,24.1c-2.8,11.9-16.2,19.3-27.9,16c-8.6-3.5-16-9.4-23.4-14.8c-6.8,5.1-16.1,7-24.2,3.7
		c-6.7-3-12.6-7.6-19.4-10.3c-6-2.4-12.1-5-16.8-9.4c-11.1-10.6-14.8-27.9-9.9-42.3c2-4.8,6.2-8.6,7.2-13.8
		c-0.4-7.5-3.4-14.5-6.6-21.2C115.4,292.1,116.3,282.5,121.5,275.9z"/>
</g>
</svg>
